<?xml version="1.0" encoding="utf-8"?>
<!-- Generator: Adobe Illustrator 24.0.3, SVG Export Plug-In . SVG Version: 6.00 Build 0)  -->
<svg version="1.1" id="Layer_1" xmlns="http://www.w3.org/2000/svg" xmlns:xlink="http://www.w3.org/1999/xlink" x="0px" y="0px"
	 viewBox="-99.213 -99.45 481.89 481.89" enable-background="new -99.213 -99.45 481.89 481.89" xml:space="preserve">
<g>
	<path d="M382.676,382.44H-99.213V-99.45h481.889V382.44z M-70.867,354.094h425.198V-71.104H-70.867V354.094z"/>
</g>
<g>
	<g>
		<path d="M231.959,49.822c-22.939-9.197-47.559-2.657-67.338,2.596c-3.227,0.855-6.379,1.692-9.359,2.415
			c-2.696-32.706-15.35-55.072-26.196-55.072c-8,0-7.833,2.75-16.333,6.507c-6.392,2.825-12.245,0.738-12.5,2.17
			c-1.25,7.012,12.333,13.523,16.25,18.531c0,0,9.75,9.015,10.303,27.309c-2.242-0.598-4.566-1.247-6.931-1.909
			c-20.258-5.675-45.504-11.366-69.313-1.356C26.732,61.026,0,83.23,0,141.9c0,55.512,33.303,112.895,79.188,136.443
			c15.422,7.912,30.158,4.522,43.159,1.524c6.721-1.548,13.07-3.012,19.386-3.012c6.38,0,12.77,1.434,19.536,2.948
			c13.158,2.947,28.07,6.289,43.605-1.774c45.537-23.642,78.59-80.898,78.59-136.135c0-26.987-4.916-47.704-15.029-63.332
			C260.013,65.559,248.423,56.425,231.959,49.822z M191.83,252.827c-6.076,3.152-12.875,1.852-24.371-0.728
			c-7.602-1.704-16.211-3.633-25.727-3.633c-9.533,0-18.142,1.982-25.737,3.733c-11.28,2.596-17.951,3.918-23.883,0.874
			C55.759,234.417,28.345,186.621,28.345,141.9c0-45.162,17.393-57.645,34.39-65.253c16.997-7.607,32.163-1.785,49.485,3.067
			c-4.78,3.769-8.924,7.296-12.072,10.973c-6.436,7.513-11.366,12.151-14.547,14.825c-4.356,3.661-0.658,6.39,0.905,6.874
			c8.059,2.502,24.908-0.772,38.351-9.512c17.375-11.295,32.375-18.808,45.625-23.065c13.25-4.257,36.725-9.326,50.939-3.627
			c17.5,7.018,33.695,19.838,33.695,65.718C255.119,186.406,227.91,234.092,191.83,252.827z"/>
	</g>
	<g>
		<path d="M217.232,175.718l-19,7.513c7.5-30.051-3.648-53.708-3.727-53.949l26.935-8.852
			C221.857,121.694,228.732,154.683,217.232,175.718z"/>
	</g>
</g>
</svg>
