<?xml version="1.0" encoding="utf-8"?>
<!-- Generator: Adobe Illustrator 24.0.3, SVG Export Plug-In . SVG Version: 6.00 Build 0)  -->
<svg version="1.1" id="Layer_1" xmlns="http://www.w3.org/2000/svg" xmlns:xlink="http://www.w3.org/1999/xlink" x="0px" y="0px"
	 viewBox="-99.213 -99.45 481.89 481.89" enable-background="new -99.213 -99.45 481.89 481.89" xml:space="preserve">
<g>
	<path d="M382.676,382.44H-99.213V-99.45h481.889V382.44z M-70.867,354.094h425.198V-71.104H-70.867V354.094z"/>
</g>
<g>
	<g>
		<path d="M273.666,183.209c-3.211-8.359,1.226-14.532,3.992-22.656c3.3-9.692,5.641-20.833,5.641-36.681V-0.072L113.397-0.239
			c0,0,0.167,41.481,0.137,56.794c-0.032,16.355,3.201,31.124,4.813,41.851c4.264,28.381,4.972,35.614-2.709,48.843
			c-9.322,16.056-18.949,22.396-62.104,23.434c-24.083,0.577-36.779,11.206-43.189,20.019c-15.737,21.64-9.456,55.168-7.161,64.02
			v14.337c0,7.824,6.348,14.167,14.178,14.167h82.53c14.283,0,26.723-4.794,38.67-9.402c14.809-5.714,31.355-6.397,31.355-6.397
			s1.501,6.88,3.002,15.734l110.54,0.058v-39.065C283.459,244.151,283.981,210.063,273.666,183.209z M130.003,247.191
			c-10.413,4.162-20.977,7.45-30.111,7.45H31.541c0,0-10.177-32.315,1.777-47.329c1.516-1.903,5.815-7.943,20.898-8.309
			c48.789-1.17,69.896-9.888,85.951-37.54c13.013-22.413,10.574-38.297,6.224-67.268c-1.41-9.383-3.982-24.303-3.982-37.797
			c0-13.494-0.047-28.31-0.047-28.31h112.415v95.783c0,12.071-1.788,19.333-4.483,29.258c-3.509,12.91-8.849,23.218-3.057,40.348
			c7.468,22.083,8.047,39.679,7.964,50.091l0.076,11.328h-61.849c0,0-1.001-5.581-3.201-17.718
			C172.941,237.18,144.608,241.356,130.003,247.191z"/>
	</g>
	<ellipse transform="matrix(0.0011 -1 1 0.0011 127.3431 269.3104)" cx="198.476" cy="70.913" rx="14.167" ry="14.178"/>
	<ellipse transform="matrix(0.0011 -1 1 0.0011 70.8681 325.723)" cx="198.476" cy="127.388" rx="14.166" ry="14.178"/>
</g>
</svg>
