<?xml version="1.0" encoding="utf-8"?>
<!-- Generator: Adobe Illustrator 24.0.3, SVG Export Plug-In . SVG Version: 6.00 Build 0)  -->
<svg version="1.1" id="Layer_1" xmlns="http://www.w3.org/2000/svg" xmlns:xlink="http://www.w3.org/1999/xlink" x="0px" y="0px"
	 viewBox="0 0 481.227 481.228" enable-background="new 0 0 481.227 481.228" xml:space="preserve">
<g>
	<rect x="-0.332" y="-0.331" fill="none" width="481.89" height="481.892"/>
	<path d="M319.484,212.519h-17.01c-3.131,0-5.668,2.537-5.668,5.668v17.009c0,3.13,2.537,5.668,5.668,5.668h17.01
		c3.131,0,5.67-2.538,5.67-5.668v-17.008C325.154,215.056,322.616,212.519,319.484,212.519"/>
	<path d="M380.902,164.762l-28.519-58.192c-2.381-4.858-7.317-7.938-12.728-7.938H237.28c-2.369,0-4.701,0.594-6.781,1.73
		c-3.512,1.912-84.699,46.816-102.811,111.976c-16.749,2.375-28.805,15.837-28.805,33.162v83.395
		c0,7.827,6.346,14.175,14.172,14.175h20.673c4.497,22.647,21.315,39.528,41.329,39.528c20.014,0,36.832-16.88,41.329-39.528h49.294
		c4.498,22.647,21.316,39.528,41.33,39.528c20.014,0,36.832-16.88,41.33-39.528h19.83c7.828,0,14.173-6.348,14.173-14.175V171
		C382.346,168.837,381.852,166.705,380.902,164.762z M240.764,127.163l-0.025,84.858h-83.102
		C174.483,168.824,227.05,135.322,240.764,127.163z M175.057,354.251c-6.691,0-14.175-9.954-14.175-23.277
		s7.484-23.279,14.175-23.279c6.691,0,14.175,9.956,14.175,23.279S181.748,354.251,175.057,354.251z M307.01,354.251
		c-6.691,0-14.174-9.954-14.174-23.277s7.483-23.279,14.174-23.279c6.691,0,14.175,9.956,14.175,23.279
		S313.702,354.251,307.01,354.251z M354.003,314.722h-6.643c-5.624-20.525-21.58-35.372-40.349-35.372
		c-18.77,0-34.727,14.847-40.348,35.372h-0.137h-51.118c-5.624-20.525-21.58-35.372-40.35-35.372
		c-18.771,0-34.726,14.847-40.35,35.372h-0.182h-7.296V245.5c0-3.87,2.67-4.913,4.797-5.133h122.879
		c7.827,0,14.171-6.343,14.173-14.17l0.031-99.218h61.708l23.185,47.306V314.722z"/>
	<path d="M481.558,481.561H-0.331V-0.329h481.889V481.561L481.558,481.561z M28.014,453.214h425.198V28.016H28.014V453.214
		L28.014,453.214z"/>
</g>
</svg>
