<?xml version="1.0" encoding="utf-8"?>
<!-- Generator: Adobe Illustrator 24.0.3, SVG Export Plug-In . SVG Version: 6.00 Build 0)  -->
<svg version="1.1" id="Layer_1" xmlns="http://www.w3.org/2000/svg" xmlns:xlink="http://www.w3.org/1999/xlink" x="0px" y="0px"
	 viewBox="-99.213 -99.45 481.89 481.89" enable-background="new -99.213 -99.45 481.89 481.89" xml:space="preserve">
<g>
	<path d="M382.676,382.44H-99.213V-99.45h481.889V382.44z M-70.867,354.094h425.198V-71.104H-70.867V354.094z"/>
</g>
<g>
	<path d="M260.755,89.123c-9.062-11.068-22.062-9.734-22.062-9.734s17,35.665-17.334,34.825c-2.438-0.062-6.056-1.119-10.246-2.414
		c-8.822-2.729-19.01-6.332-35.75-5.305c4.707-10.41,8.314-23.436,8.314-39.107c0-19.285-6.904-35.962-19.971-48.233
		C149.507,5.811,128.664-1.384,107.955-0.09C82.688,1.49,58.5,21.04,48.954,44.51c-1.234,3.849-2.229,7.44-2.981,10.884
		c-8.686,3.01-9.485,10.362-19.134,9.329c-9.333-1-24.46,0.343-26.333,9.667C-1.251,83.146,12.34,89.554,20.34,92.554
		c4.065,1.524,16.261,5.14,28.603,6.896c4.912,0.699,7.549,4.924,8.182,6.932c2.44,7.735,0.376,13.477-2.483,18.388
		c-2.309,3.964-7.669,8.052-14.07,12.681C24.415,149.131,0,166.782,0,211.715c0,45.969,38.717,66.446,59.19,70.854l1.459,0.311
		l1.492,0.004l144.854,0.332l2.094,0.009l2.008-0.603c2.541-0.764,61.289-19.561,70.338-86.227
		C291.028,125.719,263.653,92.665,260.755,89.123 M253.292,193.037c-6.672,42.877-40.147,58.674-48.612,61.832l-140.771-0.32
		c-7.067-1.892-35.559-11.462-35.559-42.829c0-30.45,14.005-40.576,28.831-51.297c8.504-6.146,17.153-12.584,22.527-22.418
		c8.606-15.747,7.201-36.01,2.672-45.068c-4.262-8.523-23.935-7.54-23.935-15.409c0-5.902,7.913-9.13,10.492-11.476
		c3.606-3.279,3.934-4.918,5.436-8.676c5.587-13.977,20.62-28.254,35.354-29.174c12.85-0.801,26.102,3.647,34.58,11.613
		c7.315,6.875,11.026,16.152,11.026,27.574c0,26.605-14.667,42.33-20.188,48.249c-0.857,0.919-1.533,1.644-2.153,2.392
		c-5.361,6.453-4.093,13.548-1.38,17.666c2.883,4.373,9.246,8.398,17.693,5.362c28.639-10.301,41.119-5.985,53.438-2.177
		c5.848,1.81,11.896,3.678,18.617,3.678c12.527,0,21.896-4.363,28.625-10.729C255.028,145.717,257.696,164.716,253.292,193.037"/>
	<path d="M127.07,199.757c-7.648-1.67-15.373,2.207-17.523,9.73c-2.149,7.523,2.208,15.371,9.734,17.521
		c8.218,2.35,18.016,3.475,28.448,3.148c18.946-0.59,54.503-11.76,66.233-47.414C187.185,200.992,146.126,203.918,127.07,199.757"/>
	<path d="M105.682,55.054c7.826,0,14.173,6.346,14.173,14.173c0,7.828-6.347,14.174-14.173,14.174
		c-7.828,0-14.175-6.346-14.175-14.174C91.507,61.401,97.854,55.054,105.682,55.054"/>
</g>
</svg>
