<?xml version="1.0" encoding="utf-8"?>
<!-- Generator: Adobe Illustrator 24.0.3, SVG Export Plug-In . SVG Version: 6.00 Build 0)  -->
<svg version="1.1" id="Layer_1" xmlns="http://www.w3.org/2000/svg" xmlns:xlink="http://www.w3.org/1999/xlink" x="0px" y="0px"
	 viewBox="-99.213 -99.45 481.89 481.89" enable-background="new -99.213 -99.45 481.89 481.89" xml:space="preserve">
<g>
	<path d="M382.676,382.44H-99.213V-99.45h481.889V382.44z M-70.867,354.094h425.198V-71.104H-70.867V354.094z"/>
</g>
<g>
	<path d="M55.903,283.225c-3.038,0.001-6.06-0.97-8.583-2.88c-4.479-3.386-6.537-9.091-5.249-14.551L62.3,180.007L4.29,123.573
		c-3.872-3.768-5.266-9.403-3.595-14.537c1.671-5.134,6.118-8.875,11.47-9.651L92.596,87.72l36.198-79.637
		c2.304-5.066,7.364-8.322,12.939-8.322l0,0c5.576,0,10.635,3.254,12.94,8.322l36.194,79.637l80.432,11.664
		c5.351,0.776,9.798,4.518,11.47,9.651c1.67,5.133,0.276,10.769-3.597,14.537l-58.006,56.435l20.23,85.787
		c1.286,5.46-0.77,11.165-5.249,14.553c-4.478,3.387-10.539,3.821-15.456,1.108l-78.959-43.567l-78.957,43.567
		C60.626,282.641,58.261,283.225,55.903,283.225z M141.734,207.505c2.368,0,4.737,0.59,6.875,1.77l57.787,31.885l-14.729-62.46
		c-1.143-4.845,0.343-9.932,3.912-13.404l43.146-41.977l-59.629-8.648c-4.789-0.694-8.895-3.775-10.896-8.174l-26.466-58.229
		l-26.468,58.229c-2,4.399-6.106,7.48-10.896,8.174l-59.627,8.648l43.148,41.977c3.57,3.473,5.055,8.56,3.913,13.404l-14.729,62.46
		l57.786-31.885C136.999,208.095,139.366,207.505,141.734,207.505z"/>
</g>
</svg>
